<?xml version="1.0" encoding="UTF-8"?>
<svg width="20px" height="24px" viewBox="0 0 20 24" version="1.1" xmlns="http://www.w3.org/2000/svg" xmlns:xlink="http://www.w3.org/1999/xlink">
    <title>E84E81EA-A97F-4FD2-91BC-9703340BD33B@1x</title>
    <g id="Dashboard" stroke="none" stroke-width="1" fill="none" fill-rule="evenodd">
        <g id="1A.15-RAROC-Dashboard---UH---Default" transform="translate(-1102.000000, -990.000000)">
            <g id="Recent-Transactions" transform="translate(83.000000, 958.000000)">
                <g id="Buttons/Secondary" transform="translate(1001.000000, 21.000000)">
                    <g id="Group" transform="translate(16.000000, 11.000000)">
                        <g id="Outlined-/-Toggle-/-check_box">
                            <polygon id="Path" points="0 0 24 0 24 24 0 24"></polygon>
                        </g>
                        <g id="xls" transform="translate(2.500000, 0.000000)" fill-rule="nonzero">
                            <path d="M13.2792857,0 L0.841285714,0 C0.495,0 0.214285714,0.280714286 0.214285714,0.825428571 L0.214285714,23.5714286 C0.214285714,23.7192857 0.495,24 0.841285714,24 L18.0158571,24 C18.3621429,24 18.6428571,23.7192857 18.6428571,23.5714286 L18.6428571,5.562 C18.6428571,5.26371429 18.603,5.16771429 18.5327143,5.097 L13.5458571,0.110142857 C13.4751429,0.0398571429 13.3791429,0 13.2792857,0 Z" id="Path" fill="#E3E5EC"></path>
                            <polygon id="Path" fill="#B9C3CA" points="13.5 0.0647142857 13.5 5.14285714 18.5781429 5.14285714"></polygon>
                            <path d="M18.0158571,24 L0.841285714,24 C0.495,24 0.214285714,23.7192857 0.214285714,23.373 L0.214285714,16.7142857 L18.6428571,16.7142857 L18.6428571,23.373 C18.6428571,23.7192857 18.3621429,24 18.0158571,24 Z" id="Path" fill="#2E962E"></path>
                            <g id="Group" transform="translate(3.857143, 18.000000)" fill="#FFFFFF">
                                <polygon id="Path" points="2.30528571 2.61642857 3.40114286 4.71428571 2.58685714 4.71428571 1.90114286 3.08528571 1.84242857 3.08528571 1.104 4.71428571 0.289714286 4.71428571 1.38557143 2.61642857 0.219428571 0.395571429 1.02214286 0.395571429 1.78371429 2.15357143 1.84242857 2.15357143 2.66871429 0.395571429 3.47142857 0.395571429"></polygon>
                                <polygon id="Path" points="5.15871429 0.396 5.15871429 4.18114286 7.14514286 4.18114286 7.14514286 4.71428571 4.44385714 4.71428571 4.44385714 0.396"></polygon>
                                <path d="M10.3032857,3.53057143 C10.3032857,3.68657143 10.2711429,3.83828571 10.2064286,3.98485714 C10.1417143,4.13142857 10.0512857,4.26 9.93428571,4.37142857 C9.81728571,4.48285714 9.67242857,4.57157143 9.50057143,4.638 C9.32871429,4.70442857 9.13328571,4.73742857 8.91471429,4.73742857 C8.82085714,4.73742857 8.72442857,4.73228571 8.62457143,4.72285714 C8.52471429,4.71342857 8.42442857,4.69628571 8.32285714,4.67314286 C8.22128571,4.64957143 8.12442857,4.61742857 8.03271429,4.57628571 C7.941,4.53514286 7.86171429,4.48542857 7.79528571,4.42671429 L7.91828571,3.92271429 C7.97271429,3.954 8.04214286,3.98442857 8.12614286,4.01357143 C8.21014286,4.04271429 8.29671429,4.07014286 8.38671429,4.09542857 C8.47628571,4.12114286 8.56628571,4.14128571 8.65628571,4.15714286 C8.74585714,4.17257143 8.82985714,4.18071429 8.90828571,4.18071429 C9.14657143,4.18071429 9.32914286,4.125 9.456,4.01357143 C9.58285714,3.90214286 9.64628571,3.73714286 9.64628571,3.51857143 C9.64628571,3.38571429 9.60128571,3.27257143 9.51171429,3.17871429 C9.42171429,3.08485714 9.30942857,3 9.17485714,2.92371429 C9.04028571,2.84742857 8.89457143,2.77157143 8.73814286,2.69528571 C8.58171429,2.619 8.43514286,2.529 8.29885714,2.42571429 C8.16214286,2.32242857 8.049,2.20028571 7.959,2.05971429 C7.869,1.91914286 7.82442857,1.74342857 7.82442857,1.53257143 C7.82442857,1.34142857 7.85957143,1.17128571 7.92985714,1.023 C8.00014286,0.874714286 8.09485714,0.748285714 8.214,0.645 C8.33314286,0.541714286 8.472,0.462428571 8.63014286,0.407571429 C8.78828571,0.352714286 8.95542857,0.325714286 9.13114286,0.325714286 C9.31071429,0.325714286 9.49242857,0.342428571 9.67585714,0.375428571 C9.85928571,0.408428571 10.0075714,0.462428571 10.1211429,0.536571429 C10.0975714,0.587142857 10.0701429,0.642857143 10.0392857,0.703714286 C10.008,0.764571429 9.97842857,0.820714286 9.95142857,0.873428571 C9.924,0.926142857 9.90042857,0.970285714 9.88114286,1.00542857 C9.86142857,1.04057143 9.84985714,1.06028571 9.846,1.06414286 C9.82242857,1.05257143 9.79628571,1.03714286 9.76671429,1.01742857 C9.73714286,0.997714286 9.69514286,0.978428571 9.64071429,0.958714286 C9.58585714,0.939 9.51385714,0.925714286 9.42385714,0.917571429 C9.33385714,0.909428571 9.21857143,0.911571429 9.078,0.923571429 C8.99957143,0.931714286 8.92585714,0.953571429 8.85514286,0.990857143 C8.78442857,1.02814286 8.72228571,1.07357143 8.66742857,1.12842857 C8.61257143,1.18328571 8.56971429,1.24457143 8.53842857,1.31314286 C8.50714286,1.38128571 8.49171429,1.44728571 8.49171429,1.50942857 C8.49171429,1.66542857 8.53628571,1.79142857 8.62628571,1.88742857 C8.71585714,1.98342857 8.82728571,2.067 8.96014286,2.13942857 C9.093,2.21185714 9.23742857,2.28214286 9.39385714,2.35028571 C9.54985714,2.41842857 9.69557143,2.502 9.83057143,2.59928571 C9.96557143,2.69657143 10.0774286,2.81914286 10.1674286,2.96528571 C10.2582857,3.11185714 10.3032857,3.3 10.3032857,3.53057143 Z" id="Path"></path>
                            </g>
                            <path d="M7.5,6.85714286 L7.5,5.14285714 L2.35714286,5.14285714 L2.35714286,6.85714286 L2.35714286,7.71428571 L2.35714286,8.57142857 L2.35714286,9.42857143 L2.35714286,10.2857143 L2.35714286,11.1428571 L2.35714286,12 L2.35714286,12.8571429 L2.35714286,14.5714286 L6.64285714,14.5714286 L7.5,14.5714286 L16.5,14.5714286 L16.5,12.8571429 L16.5,12 L16.5,11.1428571 L16.5,10.2857143 L16.5,9.42857143 L16.5,8.57142857 L16.5,6.85714286 L7.5,6.85714286 Z M3.21428571,6 L6.64285714,6 L6.64285714,6.85714286 L3.21428571,6.85714286 L3.21428571,6 Z M3.21428571,7.71428571 L6.64285714,7.71428571 L6.64285714,8.57142857 L3.21428571,8.57142857 L3.21428571,7.71428571 Z M3.21428571,9.42857143 L6.64285714,9.42857143 L6.64285714,10.2857143 L3.21428571,10.2857143 L3.21428571,9.42857143 Z M3.21428571,11.1428571 L6.64285714,11.1428571 L6.64285714,12 L3.21428571,12 L3.21428571,11.1428571 Z M6.64285714,13.7142857 L3.21428571,13.7142857 L3.21428571,12.8571429 L6.64285714,12.8571429 L6.64285714,13.7142857 Z M15.6428571,13.7142857 L7.5,13.7142857 L7.5,12.8571429 L15.6428571,12.8571429 L15.6428571,13.7142857 Z M15.6428571,12 L7.5,12 L7.5,11.1428571 L15.6428571,11.1428571 L15.6428571,12 Z M15.6428571,10.2857143 L7.5,10.2857143 L7.5,9.42857143 L15.6428571,9.42857143 L15.6428571,10.2857143 Z M7.5,8.57142857 L7.5,7.71428571 L15.6428571,7.71428571 L15.6428571,8.57142857 L7.5,8.57142857 Z" id="Shape" fill="#8EB88E"></path>
                        </g>
                    </g>
                </g>
            </g>
        </g>
    </g>
</svg>