<?xml version="1.0" encoding="UTF-8"?>
<svg width="195px" height="32px" viewBox="0 0 195 32" version="1.1" xmlns="http://www.w3.org/2000/svg" xmlns:xlink="http://www.w3.org/1999/xlink">
    <title>711A211A-618F-4BDB-8239-73F9A62D5343@3.00x</title>
    <defs>
        <linearGradient x1="16.9340478%" y1="50%" x2="100%" y2="50%" id="linearGradient-1">
            <stop stop-color="#E85236" offset="0%"></stop>
            <stop stop-color="#F49E30" offset="48.1999578%"></stop>
            <stop stop-color="#EFE300" offset="100%"></stop>
        </linearGradient>
        <linearGradient x1="-8.33048869%" y1="31.4501406%" x2="115.534806%" y2="69.9790968%" id="linearGradient-2">
            <stop stop-color="#E85236" offset="0%"></stop>
            <stop stop-color="#F49E30" offset="48.1999578%"></stop>
            <stop stop-color="#EFE300" offset="100%"></stop>
        </linearGradient>
        <linearGradient x1="28.6413259%" y1="-28.6995469%" x2="67.4422199%" y2="113.091068%" id="linearGradient-3">
            <stop stop-color="#E85236" offset="0%"></stop>
            <stop stop-color="#F49E30" offset="48.1999578%"></stop>
            <stop stop-color="#EFE300" offset="100%"></stop>
        </linearGradient>
        <linearGradient x1="51.6366859%" y1="-15.7548843%" x2="49.394419%" y2="120.79914%" id="linearGradient-4">
            <stop stop-color="#E85236" offset="0%"></stop>
            <stop stop-color="#F49E30" offset="48.1999578%"></stop>
            <stop stop-color="#EFE300" offset="100%"></stop>
        </linearGradient>
        <linearGradient x1="92.4771809%" y1="-29.7536329%" x2="8.1090686%" y2="122.437041%" id="linearGradient-5">
            <stop stop-color="#E85236" offset="0%"></stop>
            <stop stop-color="#F49E30" offset="48.1999578%"></stop>
            <stop stop-color="#EFE300" offset="100%"></stop>
        </linearGradient>
        <linearGradient x1="118.022435%" y1="30.4454875%" x2="-15.1788501%" y2="68.8276898%" id="linearGradient-6">
            <stop stop-color="#E85236" offset="0%"></stop>
            <stop stop-color="#F49E30" offset="48.1999578%"></stop>
            <stop stop-color="#EFE300" offset="100%"></stop>
        </linearGradient>
    </defs>
    <g id="Symbols" stroke="none" stroke-width="1" fill="none" fill-rule="evenodd">
        <g id="Navigation/Header-Transparent" transform="translate(-586.000000, -20.000000)">
            <g id="Header" transform="translate(20.000000, 20.000000)">
                <g id="Logo/White" transform="translate(566.000000, 0.000000)">
                    <g id="M-logo/Horizontal">
                        <g id="Mashreq-logo">
                            <path d="M18.0808421,18.2853053 L18.0808421,20.7257263 C16.8387368,21.5269895 15.1423158,21.2928842 15.0256842,20.4613053 C14.7882105,18.7661474 17.1612632,19.4095158 18.0808421,18.2853053 L18.0808421,18.2853053 Z M13.7364211,14.8280421 C13.9755789,15.2469895 14.2138947,15.6646737 14.4534737,16.0840421 C16.3654737,15.8267789 17.8955789,15.6832 18.1831579,16.3838316 C17.3263158,18.7219368 13.1722105,16.9867789 13.1048421,19.9450947 C13.0703158,21.4575158 14.0522105,22.2120421 14.8821053,22.3627789 C16.6711579,22.8486737 18.0964211,22.3173053 19.8871579,22.2179368 L19.8572632,16.6229895 C19.8458947,14.1472 16.4282105,13.8288842 13.7364211,14.8280421 L13.7364211,14.8280421 Z M27.0353684,14.5665684 C26.8842105,15.0848842 26.7966316,15.5370947 26.6446316,16.0558316 C26.0172632,16.0044632 25.3271579,15.7829895 24.6985263,15.7758316 C23.6134737,15.7644632 23.2509474,17.0975158 24.2968421,17.4027789 C27.5313684,18.3467789 28.3953684,21.0154105 25.6353684,22.3724632 C24.7330526,22.8175158 22.5945263,22.5657263 21.4374737,22.0667789 C21.6829474,21.5897263 21.9258947,21.1122526 22.1688421,20.6347789 C22.5431579,20.8280421 22.8509474,21.1290947 23.2623158,21.2145684 C25.3831579,21.6461474 26.3275789,19.8516211 24.5414737,19.1712 C23.2395789,18.6764632 21.9309474,18.1093053 21.7418947,16.8844632 C21.5541053,15.6579368 22.4922105,14.5181474 23.8408421,14.3829895 C24.9776842,14.2709895 25.9966316,14.3021474 27.0353684,14.5665684 L27.0353684,14.5665684 Z M29.1157895,10.7606737 L30.7936842,10.7606737 L30.7936842,14.7324632 C33.3966316,13.9013053 35.2501053,14.3004632 36.0387368,15.9648842 C36.1035789,18.1050947 36.0387368,20.3004632 36.0387368,22.5004632 L34.3612632,22.5004632 L34.3612632,17.2865684 C34.3612632,15.3994105 30.7936842,15.8541474 30.7936842,16.8857263 L30.7936842,22.5004632 L29.1157895,22.5004632 L29.1157895,10.7606737 Z M39.7898947,22.5004632 L38.1132632,22.5004632 L38.1044211,16.0288842 C38.1044211,15.7973053 38.0732632,15.3122526 38.2437895,15.0937263 C38.8505263,14.3177263 42.3621053,14.3118316 43.2084211,14.4440421 L42.2896842,15.9804632 C41.2606316,15.9476211 40.1195789,15.8482526 39.8071579,16.2579368 L39.7898947,22.5004632 Z M47.008,14.2949895 C50.3389474,14.2949895 50.7170526,17.3130947 50.7170526,19.1564632 L45.1637895,19.1240421 L45.1532632,19.1240421 C45.1532632,19.1564632 45.1604211,19.2023579 45.1532632,19.2533053 C45.0778947,19.7888842 45.7970526,21.2061474 47.6063158,21.0752 C47.8576842,21.0566737 49.1692632,20.9143579 49.4618947,20.6116211 L50.2037895,21.6490947 C49.5545263,22.2444632 47.9991579,22.5770947 47.0930526,22.5770947 C45.0117895,22.5770947 43.3056842,20.7497263 43.3056842,18.4234105 C43.3056842,16.0958316 44.9258947,14.2949895 47.008,14.2949895 L47.008,14.2949895 Z M48.8126316,17.6432 C48.7772632,16.7438316 48.3195789,15.7914105 47.0374737,15.7914105 C45.8025263,15.7914105 45.2298947,16.7547789 45.2311558,17.6714105 L48.8126316,17.6432 Z M57.5928421,16.0305684 L57.5928421,21.0137263 C53.1254737,21.9876211 53.0576842,16.6924632 55.5570526,16.0305684 C56.2366316,15.9050947 56.9145263,15.9547789 57.5928421,16.0305684 L57.5928421,16.0305684 Z M51.9709474,18.5240421 C51.9709474,20.9404632 53.9898947,22.6356211 56.4783158,22.6356211 C56.8631579,22.6356211 57.2357895,22.5918316 57.5928421,22.5088842 L57.5928421,26.3404632 L59.2690526,25.9029895 L59.2690526,14.7257263 C57.8635789,14.4242526 56.0147368,14.3577263 54.5667368,14.7168842 C53.0547368,15.0920421 51.9709474,16.3926737 51.9709474,18.5240421 L51.9709474,18.5240421 Z M2.39340711e-14,22.1097263 L2.39340711e-14,14.9610947 C2.13305263,14.0806737 4.13557895,14.0478316 6.008,14.8634105 C8.10484211,13.8347789 11.3789474,14.1699368 11.3789474,16.7253053 L11.3789474,22.1097263 L9.57263158,22.0928842 L9.57263158,16.8162526 C9.53684211,16.4208842 9.47326316,16.1994105 8.97726316,16.0356211 C8.136,15.7585684 7.29178947,15.8996211 6.54442105,16.2347789 L6.54442105,22.1097263 L4.68884211,22.1097263 L4.68884211,16.2347789 C3.69642105,15.7375158 2.65305263,15.5581474 1.65978947,16.2347789 L1.65978947,22.1097263 L2.39340711e-14,22.1097263 Z" id="Mashreq" fill="#FFFFFF"></path>
                            <path d="M146.908379,18.3749474 C146.494905,17.0389474 145.903326,16.0246316 144.672589,16.1635789 C144.330274,16.3644211 144.115537,16.8132632 144.111326,17.1071579 C144.771116,18.1492632 145.887747,18.2031579 146.908379,18.3749474 L146.908379,18.3749474 Z M166.757221,12.4688421 C166.441853,12.7846316 165.959747,13.2263158 165.311747,13.7989474 C165.043116,13.5762105 164.6128,13.1694737 164.017011,12.5728421 C163.488589,13.1223158 163.052379,13.5303158 162.709642,13.7989474 C162.405642,13.5762105 161.923958,13.1353684 161.264589,12.4688421 L162.639747,11.1286316 C162.910063,11.3517895 163.369011,11.7812632 164.017011,12.4233684 L165.311747,11.1286316 C165.523537,11.2595789 166.005221,11.7130526 166.757221,12.4688421 L166.757221,12.4688421 Z M165.077221,10.4195789 C164.9168,10.7450526 164.589642,11.1357895 164.085221,11.5947368 C163.826695,11.3816842 163.443116,11.0263158 162.944168,10.5218947 C163.040589,10.3555789 163.403116,9.96063158 164.017011,9.34673684 L165.077221,10.4195789 Z M181.330695,20.8010526 L181.330695,20.5551579 C181.330695,20.508 181.165642,19.8330526 180.826274,19.2250526 C180.490695,18.6208421 179.963537,18.2174737 179.878484,18.1092632 C179.761432,17.9530526 179.581221,17.8734737 179.3408,17.8734737 C178.963116,17.8734737 178.511326,18.2246316 178.106274,18.8385263 C177.798905,19.2903158 177.563537,19.6414737 177.388379,20.1555789 C178.075116,20.7951579 179.878484,20.9357895 180.905432,20.8566316 C181.099116,20.8418947 181.241011,20.8381053 181.330695,20.8010526 L181.330695,20.8010526 Z M190.866274,22.7265263 L177.570274,22.7265263 C177.127326,22.6296842 176.5488,22.34 176.255747,21.9235789 C176.019958,22.5787368 175.775747,22.7265263 175.454484,22.7265263 L155.4448,22.7265263 C154.977432,24.2355789 154.416168,25.2730526 153.775326,25.9442105 C152.963537,26.7837895 151.075116,27.2978947 149.6368,27.2978947 C149.373642,26.8351579 149.366905,26.3703158 149.615747,25.9071579 C150.526484,25.8503158 151.542484,25.4338947 152.278905,24.7972632 C153.061642,24.1181053 153.358484,23.2136842 153.358484,22.3273684 C153.358484,21.5058947 152.832589,19.4692632 151.923537,18.5143158 L153.5408,17.1783158 C154.080589,17.5833684 154.753011,18.8684211 155.432168,20.8010526 L160.319747,20.8010526 C160.319747,20.7909474 160.329432,20.7484211 160.347958,20.6633684 C160.350905,19.7850526 159.971116,18.9050526 159.211116,18.0267368 C159.4608,17.6818947 159.857432,17.2056842 160.400589,16.5871579 C161.623747,17.7522105 162.141221,19.148 162.145432,20.7724211 L164.137853,20.7724211 L164.195116,20.6347368 C164.410695,19.6894737 163.978695,18.8187368 163.127747,18.0267368 L164.288589,16.5871579 C165.811958,17.7227368 165.961432,19.3926316 165.864589,20.7724211 L168.370274,20.7724211 L168.398484,20.6347368 C168.446484,20.1530526 168.251958,18.0722105 166.896589,16.86 L168.364379,15.6195789 C169.299537,16.5391579 170.238905,18.4431579 170.068379,20.8292632 L173.427537,20.8292632 C174.865853,20.8292632 175.285221,20.0688421 175.950484,19.2393684 C176.355537,18.4557895 176.766063,17.6772632 177.1808,16.9029474 C177.667116,16.0684211 178.417432,15.6477895 179.431747,15.6477895 C180.059958,15.6477895 180.630063,15.9732632 181.144589,16.6296842 C181.461221,17.0347368 181.847747,17.724 182.309642,18.6962105 C182.767326,19.668 183.107116,20.6347368 183.328589,20.9130526 L189.088589,20.9130526 L188.957642,11.3109474 L190.522274,10.7050526 C190.637221,14.7130526 190.752589,18.7189474 190.866274,22.7265263 L190.866274,22.7265263 Z M194.8768,22.3585263 L193.069221,22.6696842 L192.733642,11.2094737 L194.545853,10.8983158 L194.8768,22.3585263 Z M146.288589,20.0574737 C145.342063,19.8941053 144.174063,19.5644211 143.478063,19.2347368 C142.498274,18.7016842 142.283958,17.6077895 143.079747,16.1635789 C143.417853,15.5496842 143.849853,14.8591579 144.488168,14.5677895 C146.643958,13.5842105 147.567326,14.8208421 148.133221,16.4406316 C149.110905,19.2376842 148.4688,21.0608421 146.203116,22.1821053 C143.526063,22.9155789 141.229642,22.86 138.753853,22.6696842 C136.006905,22.4562105 134.9328,21.4503158 134.619537,19.0743158 C134.443537,17.7341053 134.926905,16.0726316 136.069642,14.6844211 C136.306695,14.7837895 136.687747,15.0751579 137.201853,15.5526316 C136.640589,16.5576842 136.353853,17.6528421 136.353853,18.4785263 C136.353853,19.0785263 136.549642,19.5943158 137.003116,19.9627368 C138.492379,21.0237895 144.254905,20.9926316 146.043958,20.436 C146.341221,20.3433684 146.307116,20.2936842 146.288589,20.0574737 L146.288589,20.0574737 Z M148.242695,11.5989474 C147.990905,11.8962105 147.543747,12.3665263 146.898695,13.012 L145.548379,11.6945263 L144.270484,13.012 L142.937432,11.6658947 C143.093642,11.4541053 143.537432,10.9938947 144.270484,10.2831579 L145.548379,11.5648421 L146.898695,10.2831579 L148.242695,11.5989474 Z" id="Mashreq-arabic" fill="#FFFFFF"></path>
                            <g id="Mashreq-symbol" transform="translate(62.073305, 0.000000)">
                                <path d="M2.39340711e-14,27.0909474 C7.26778947,30.2821053 14.336,31.9654737 21.1856842,31.9793684 L21.1856842,31.9793684 L21.3574737,31.9793684 C27.9882105,31.9658947 34.4151579,30.3848421 40.6176842,27.0909474 L40.6176842,27.0909474 C33.8143158,23.9995789 26.9785263,22.3768421 20.1023158,22.3768421 L20.1023158,22.3768421 C13.4395789,22.3772632 6.73810526,23.9018947 2.39340711e-14,27.0909474" id="Fill-8" fill="url(#linearGradient-1)"></path>
                                <path d="M42.7722105,23.1157895 C36.4231579,13.4092632 27.3448421,7.95831579 14.9869474,7.67957895 L14.9869474,7.67957895 C21.6555789,18.2176842 30.848,23.6 42.7722105,23.1157895" id="Mask"></path>
                                <path d="M42.7722105,23.1157895 C36.4231579,13.4092632 27.3448421,7.95831579 14.9869474,7.67957895 L14.9869474,7.67957895 C21.6555789,18.2176842 30.848,23.6 42.7722105,23.1157895" id="Fill-11" fill="url(#linearGradient-2)"></path>
                                <path d="M34.4703158,-1.3462915e-14 C33.6378947,8.82231579 37.112,15.6833684 44.8804211,20.248 L44.8804211,20.248 C45.7124211,12.1191579 42.4627368,5.27957895 34.4703158,-1.3462915e-14 Z" id="Fill-14" fill="url(#linearGradient-3)"></path>
                                <path d="M49.2543158,19.4707368 C53.4109474,14.1557895 53.9225263,8.31789474 50.2050526,1.944 L50.2050526,1.944 C45.3233684,7.52631579 45.0168421,13.4467368 49.2543158,19.4707368" id="Fill-17" fill="url(#linearGradient-4)"></path>
                                <path d="M53.0968421,19.7136842 C58.7591579,18.2724211 61.6791579,14.4736842 61.7671579,8.24084211 L61.7671579,8.24084211 C55.7743158,9.68505263 52.8197895,13.5418947 53.0968421,19.7136842" id="Fill-20" fill="url(#linearGradient-5)"></path>
                                <path d="M56.1583158,22.4749474 C61.0454737,23.3675789 64.6707368,21.8694737 66.3928421,17.3717895 L66.3928421,17.3717895 C65.5515789,17.2117895 64.7498947,17.1313684 63.9894737,17.1313684 L63.9894737,17.1313684 C60.4231579,17.1313684 57.7654737,18.8976842 56.1583158,22.4749474" id="Fill-23" fill="url(#linearGradient-6)"></path>
                            </g>
                        </g>
                    </g>
                </g>
            </g>
        </g>
    </g>
</svg>